<?xml version="1.0" standalone="no"?>
<!DOCTYPE svg PUBLIC "-//W3C//DTD SVG 20010904//EN"
 "http://www.w3.org/TR/2001/REC-SVG-20010904/DTD/svg10.dtd">
<svg version="1.0" xmlns="http://www.w3.org/2000/svg"
 width="1024.000000pt" height="1024.000000pt" viewBox="0 0 1024.000000 1024.000000"
 preserveAspectRatio="xMidYMid meet">
<metadata>
Created by potrace 1.14, written by Peter Selinger 2001-2017
</metadata>
<g transform="translate(0.000000,1024.000000) scale(0.100000,-0.100000)"
fill="#000000" stroke="none">
<path d="M0 5120 l0 -5120 5120 0 5120 0 0 5120 0 5120 -5120 0 -5120 0 0
-5120z m5540 1640 l0 -3110 1165 0 1165 0 0 -385 c0 -212 -3 -384 -7 -384 -5
1 -529 1 -1165 0 l-1158 -1 0 -1165 0 -1165 -380 0 -380 0 0 1165 0 1165
-1155 1 c-635 1 -1161 2 -1167 3 -10 1 -13 84 -13 381 l0 380 1165 5 1165 5 3
3108 2 3107 380 0 380 0 0 -3110z"/>
</g>
</svg>
